<svg width="11" height="11" viewBox="0 0 11 11" fill="none" xmlns="http://www.w3.org/2000/svg">
<path d="M10.7552 1.80473C10.5921 1.64922 10.3986 1.57146 10.1752 1.57146H9.35037V0.982149C9.35037 0.712113 9.24931 0.480884 9.0474 0.288547C8.84537 0.0962111 8.60273 0 8.31908 0H7.90672C7.62309 0 7.38036 0.0962112 7.17842 0.288569C6.97642 0.480884 6.87545 0.712135 6.87545 0.982171V1.57148H4.40078V0.982171C4.40078 0.712135 4.29976 0.480905 4.0978 0.288569C3.89589 0.0962112 3.65314 0 3.36951 0H2.95708C2.67352 0 2.43075 0.0962112 2.22879 0.288569C2.02687 0.480884 1.92583 0.712135 1.92583 0.982171V1.57148H1.10097C0.877502 1.57148 0.684188 1.64924 0.520917 1.80475C0.357647 1.96024 0.276001 2.14444 0.276001 2.35723V10.2144C0.276001 10.427 0.357647 10.6112 0.520917 10.7667C0.684165 10.9222 0.87748 11 1.10097 11H10.175C10.3985 11 10.592 10.9222 10.755 10.7667C10.9183 10.6112 11 10.427 11 10.2144V2.35721C11 2.14436 10.9184 1.96024 10.7552 1.80473ZM2.95701 10.2143H1.10097V8.44633H2.95701V10.2143ZM2.95701 8.05357H1.10097V6.0894H2.95701V8.05357ZM2.95701 5.69637H1.10097V3.9286H2.95701V5.69637ZM2.81209 2.88812C2.77126 2.84923 2.75088 2.80328 2.75088 2.75003V0.982235C2.75088 0.929045 2.77126 0.882971 2.81209 0.844143C2.85293 0.80525 2.90117 0.785836 2.95708 0.785836H3.36951C3.42536 0.785836 3.47373 0.80525 3.5145 0.844143C3.55533 0.882993 3.57576 0.929045 3.57576 0.982235V2.75003C3.57576 2.8033 3.55524 2.84925 3.5145 2.88812C3.47371 2.92701 3.42542 2.94643 3.36951 2.94643H2.95708C2.90123 2.94645 2.85293 2.92701 2.81209 2.88812ZM5.43182 10.2143H3.36944V8.44633H5.43182V10.2143ZM5.43182 8.05357H3.36944V6.0894H5.43182V8.05357ZM5.43182 5.69637H3.36944V3.9286H5.43182V5.69637ZM7.90672 10.2143H5.84436V8.44633H7.90672V10.2143ZM7.90672 8.05357H5.84436V6.0894H7.90672V8.05357ZM7.90672 5.69637H5.84436V3.9286H7.90672V5.69637ZM7.76164 2.88812C7.72085 2.84923 7.70054 2.80328 7.70054 2.75003V0.982235C7.70054 0.929045 7.72085 0.882971 7.76164 0.844143C7.80245 0.80525 7.85078 0.785836 7.90672 0.785836H8.31908C8.37502 0.785836 8.4233 0.80525 8.46416 0.844143C8.50497 0.882993 8.52526 0.929045 8.52526 0.982235V2.75003C8.52526 2.8033 8.50488 2.84925 8.46416 2.88812C8.42337 2.92701 8.37502 2.94643 8.31908 2.94643H7.90672C7.8508 2.94645 7.80229 2.92701 7.76164 2.88812ZM10.175 10.2143H8.31892V8.44633H10.175V10.2143ZM10.175 8.05357H8.31892V6.0894H10.175V8.05357ZM10.175 5.69637H8.31892V3.9286H10.175V5.69637Z" fill="#FF9900"/>
</svg>
