<svg width="32" height="35" viewBox="0 0 32 35" fill="none" xmlns="http://www.w3.org/2000/svg">
<path d="M31.2758 5.6053C30.7934 5.12231 30.221 4.88078 29.5601 4.88078H27.12V3.05045C27.12 2.21175 26.8211 1.49358 26.2238 0.896198C25.6261 0.298822 24.9083 0 24.0692 0H22.8494C22.0103 0 21.2923 0.298822 20.6949 0.896265C20.0973 1.49358 19.7987 2.21182 19.7987 3.05052V4.88085H12.478V3.05052C12.478 2.21182 12.1792 1.49364 11.5818 0.896265C10.9844 0.298822 10.2663 0 9.4273 0H8.20723C7.3684 0 6.65022 0.298822 6.05278 0.896265C5.45547 1.49358 5.15658 2.21182 5.15658 3.05052V4.88085H2.71646C2.05538 4.88085 1.48351 5.12237 1.00052 5.60536C0.517529 6.08829 0.276001 6.66042 0.276001 7.3213V31.7247C0.276001 32.3851 0.517529 32.9571 1.00052 33.4404C1.48344 33.9233 2.05531 34.1649 2.71646 34.1649H29.5596C30.2205 34.1649 30.793 33.9233 31.2753 33.4404C31.7584 32.9573 32 32.3851 32 31.7247V7.32124C31.9999 6.66016 31.7586 6.08829 31.2758 5.6053ZM8.20703 31.7244H2.71646V26.2334H8.20703V31.7244ZM8.20703 25.0136H2.71646V18.9131H8.20703V25.0136ZM8.20703 17.6923H2.71646V12.2018H8.20703V17.6923ZM7.77833 8.9702C7.65754 8.8494 7.59724 8.7067 7.59724 8.5413V3.05072C7.59724 2.88552 7.65754 2.74242 7.77833 2.62182C7.89913 2.50102 8.04183 2.44072 8.20723 2.44072H9.4273C9.5925 2.44072 9.7356 2.50102 9.8562 2.62182C9.97699 2.74248 10.0374 2.88552 10.0374 3.05072V8.5413C10.0374 8.70677 9.97673 8.84947 9.8562 8.9702C9.73553 9.091 9.5927 9.15129 9.4273 9.15129H8.20723C8.04203 9.15136 7.89913 9.091 7.77833 8.9702ZM15.5281 31.7244H9.42709V26.2334H15.5281V31.7244ZM15.5281 25.0136H9.42709V18.9131H15.5281V25.0136ZM15.5281 17.6923H9.42709V12.2018H15.5281V17.6923ZM22.8494 31.7244H16.7485V26.2334H22.8494V31.7244ZM22.8494 25.0136H16.7485V18.9131H22.8494V25.0136ZM22.8494 17.6923H16.7485V12.2018H22.8494V17.6923ZM22.4202 8.9702C22.2995 8.8494 22.2394 8.7067 22.2394 8.5413V3.05072C22.2394 2.88552 22.2995 2.74242 22.4202 2.62182C22.5409 2.50102 22.6839 2.44072 22.8494 2.44072H24.0692C24.2347 2.44072 24.3775 2.50102 24.4984 2.62182C24.6191 2.74248 24.6792 2.88552 24.6792 3.05072V8.5413C24.6792 8.70677 24.6189 8.84947 24.4984 8.9702C24.3777 9.091 24.2347 9.15129 24.0692 9.15129H22.8494C22.684 9.15136 22.5405 9.091 22.4202 8.9702ZM29.5596 31.7244H24.0688V26.2334H29.5596V31.7244ZM29.5596 25.0136H24.0688V18.9131H29.5596V25.0136ZM29.5596 17.6923H24.0688V12.2018H29.5596V17.6923Z" fill="#FF9900"/>
</svg>
