<svg width="48" height="48" viewBox="0 0 48 48" fill="none" xmlns="http://www.w3.org/2000/svg">
<path d="M11.15 35.1C13.25 33.6667 15.325 32.5583 17.375 31.775C19.425 30.9917 21.6333 30.6 24 30.6C26.3667 30.6 28.5917 30.9917 30.675 31.775C32.7583 32.5583 34.8333 33.6667 36.9 35.1C38.3667 33.3 39.4 31.5 40 29.7C40.6 27.9 40.9 26 40.9 24C40.9 19.2 39.2833 15.1833 36.05 11.95C32.8167 8.71668 28.8 7.10001 24 7.10001C19.2 7.10001 15.1833 8.71668 11.95 11.95C8.71666 15.1833 7.1 19.2 7.1 24C7.1 26 7.40833 27.9 8.025 29.7C8.64166 31.5 9.68333 33.3 11.15 35.1ZM24 25.6C22.0333 25.6 20.3917 24.9333 19.075 23.6C17.7583 22.2667 17.1 20.6167 17.1 18.65C17.1 16.7167 17.7667 15.0833 19.1 13.75C20.4333 12.4167 22.0667 11.75 24 11.75C25.9667 11.75 27.6083 12.4167 28.925 13.75C30.2417 15.0833 30.9 16.7333 30.9 18.7C30.9 20.6333 30.2333 22.2667 28.9 23.6C27.5667 24.9333 25.9333 25.6 24 25.6ZM24 44.3C21.2333 44.3 18.6167 43.7667 16.15 42.7C13.6833 41.6333 11.525 40.175 9.675 38.325C7.825 36.475 6.36666 34.325 5.3 31.875C4.23333 29.425 3.7 26.8 3.7 24C3.7 21.2 4.23333 18.575 5.3 16.125C6.36666 13.675 7.825 11.525 9.675 9.67501C11.525 7.82501 13.675 6.36668 16.125 5.30001C18.575 4.23335 21.2 3.70001 24 3.70001C26.8 3.70001 29.425 4.23335 31.875 5.30001C34.325 6.36668 36.475 7.82501 38.325 9.67501C40.175 11.525 41.6333 13.675 42.7 16.125C43.7667 18.575 44.3 21.2 44.3 24C44.3 26.7667 43.7667 29.3833 42.7 31.85C41.6333 34.3167 40.175 36.475 38.325 38.325C36.475 40.175 34.325 41.6333 31.875 42.7C29.425 43.7667 26.8 44.3 24 44.3ZM24 40.9C25.8 40.9 27.5583 40.6417 29.275 40.125C30.9917 39.6083 32.7 38.7 34.4 37.4C32.7 36.2 30.9917 35.2917 29.275 34.675C27.5583 34.0583 25.8 33.75 24 33.75C22.2 33.75 20.45 34.0583 18.75 34.675C17.05 35.2917 15.3333 36.2 13.6 37.4C15.3 38.7 17.0083 39.6083 18.725 40.125C20.4417 40.6417 22.2 40.9 24 40.9ZM24 22.45C25.1 22.45 26.0083 22.1 26.725 21.4C27.4417 20.7 27.8 19.7833 27.8 18.65C27.8 17.55 27.4417 16.65 26.725 15.95C26.0083 15.25 25.1 14.9 24 14.9C22.9 14.9 21.9917 15.25 21.275 15.95C20.5583 16.65 20.2 17.55 20.2 18.65C20.2 19.7833 20.5583 20.7 21.275 21.4C21.9917 22.1 22.9 22.45 24 22.45Z" fill="white"/>
</svg>
